<svg version="1.2" xmlns="http://www.w3.org/2000/svg" viewBox="0 0 320 150" width="320" height="150">
	<title>DG-logo-guideones</title>
	<style>
		tspan { white-space:pre } 
		.s0 { fill: #ffffff;stroke: #b3b3b3;stroke-miterlimit:10 } 
		.t1 { font-size: 12px;fill: #000000;font-weight: 300;font-family: "Montserrat Roman" } 
		.s2 { fill: #0483af } 
		.s3 { fill: #ff7a48 } 
		.t4 { font-size: 6px;fill: #000000;font-family: "Myriad Pro" } 
	</style>
	<g id="Layer 1">
		<g id="&lt;Group&gt;">
			<g id="&lt;Group&gt;">
				<g id="&lt;Group&gt;">
				</g>
				<g id="&lt;Group&gt;">
				</g>
			</g>
			<g id="&lt;Group&gt;">
				<g id="&lt;Group&gt;">
				</g>
				<g id="&lt;Group&gt;">
				</g>
			</g>
		</g>
		<g id="&lt;Group&gt;">
			<g id="&lt;Group&gt;">
				<g id="&lt;Group&gt;">
				</g>
				<g id="&lt;Group&gt;">
				</g>
			</g>
			<g id="&lt;Group&gt;">
			</g>
			<g id="&lt;Group&gt;">
			</g>
		</g>
		<g id="&lt;Group&gt;">
		</g>
		<g id="&lt;Group&gt;">
		</g>
		<g id="&lt;Group&gt;">
			<g id="&lt;Group&gt;">
			</g>
			<g id="&lt;Group&gt;">
			</g>
		</g>
		<g id="&lt;Group&gt;">
		</g>
		<g id="&lt;Group&gt;">
			<path id="&lt;Path&gt;" class="s0" d="m730 573.7v12.7h-12.7v-12.7z"/>
			<text id="#ffffff
" style="transform: matrix(.973,0,0,.973,734.082,583.508)" >
				<tspan x="0" y="0" class="t1">#ffffff
</tspan>
			</text>
		</g>
		<g id="&lt;Group&gt;">
			<g id="&lt;Group&gt;">
				<g id="&lt;Group&gt;">
				</g>
				<g id="&lt;Group&gt;">
				</g>
			</g>
		</g>
		<g id="&lt;Group&gt;">
			<g id="&lt;Group&gt;">
				<g id="&lt;Group&gt;">
					<g id="&lt;Group&gt;">
					</g>
					<g id="&lt;Group&gt;">
					</g>
				</g>
			</g>
			<g id="&lt;Group&gt;">
				<g id="&lt;Group&gt;">
					<g id="&lt;Group&gt;">
					</g>
					<g id="&lt;Group&gt;">
					</g>
				</g>
			</g>
			<g id="&lt;Group&gt;">
				<g id="&lt;Group&gt;">
					<g id="&lt;Group&gt;">
						<g id="&lt;Group&gt;">
						</g>
						<g id="&lt;Group&gt;">
						</g>
					</g>
				</g>
			</g>
		</g>
		<g id="&lt;Group&gt;">
			<g id="&lt;Group&gt;">
				<g id="&lt;Group&gt;">
				</g>
				<g id="&lt;Group&gt;">
				</g>
			</g>
		</g>
		<g id="&lt;Group&gt;">
			<g id="&lt;Group&gt;">
				<path id="&lt;Compound Path&gt;" class="s2" d="m111.5 76.5v-32.5h14q5.3 0 9.4 2.1 4.1 2 6.3 5.7 2.3 3.7 2.3 8.5 0 4.8-2.3 8.5-2.2 3.6-6.3 5.7-4.1 2-9.4 2zm4.8-4h9q4.1 0 7.1-1.5 3-1.6 4.7-4.3 1.7-2.8 1.7-6.4 0-3.7-1.7-6.4-1.7-2.8-4.7-4.3-3-1.5-7.1-1.5h-9z"/>
				<path id="&lt;Compound Path&gt;" class="s2" d="m155.5 44v32.5h-4.7v-32.5z"/>
				<path id="&lt;Compound Path&gt;" class="s2" d="m180.5 76.9q-3.8 0-7-1.2-3.3-1.3-5.7-3.5-2.3-2.3-3.7-5.3-1.3-3-1.3-6.6 0-3.6 1.3-6.6 1.4-3.1 3.8-5.3 2.4-2.3 5.6-3.5 3.2-1.2 7.1-1.2 4 0 7.3 1.2 3.2 1.3 5.5 3.8l-2.9 2.9q-2.1-2-4.5-2.9-2.4-0.9-5.2-0.9-2.8 0-5.3 0.9-2.4 1-4.2 2.6-1.8 1.7-2.8 4-0.9 2.3-0.9 5 0 2.6 0.9 4.9 1 2.3 2.8 4 1.8 1.7 4.2 2.6 2.4 1 5.3 1 2.6 0 5.1-0.8 2.4-0.9 4.5-2.8l2.7 3.6q-2.4 2-5.7 3.1-3.3 1-6.9 1zm8.1-4.7v-12.1h4.5v12.7z"/>
				<path id="&lt;Compound Path&gt;" class="s2" d="m207 44v32.5h-4.8v-32.5z"/>
				<path id="&lt;Compound Path&gt;" class="s2" d="m223.6 76.5v-28.4h-11.4v-4.1h27.5v4.1h-11.4v28.4z"/>
				<path id="&lt;Compound Path&gt;" class="s2" d="m238.2 76.5l15-32.5h4.8l15.1 32.5h-5l-13.5-29.9h1.9l-13.4 29.9zm6.4-8.1l1.3-3.7h18.7l1.4 3.7z"/>
				<path id="&lt;Compound Path&gt;" class="s2" d="m278.9 76.5v-32.5h4.8v28.5h18v4z"/>
				<path id="&lt;Compound Path&gt;" class="s2" d="m129.3 132.6q-3.9 0-7.1-1.2-3.3-1.2-5.6-3.5-2.4-2.2-3.7-5.3-1.4-3-1.4-6.6 0-3.6 1.3-6.6 1.4-3 3.8-5.3 2.4-2.3 5.6-3.5 3.2-1.2 7.1-1.2 4 0 7.3 1.2 3.2 1.3 5.5 3.8l-2.9 2.9q-2.1-2-4.5-2.9-2.4-0.9-5.2-0.9-2.8 0-5.3 0.9-2.4 1-4.2 2.6-1.8 1.7-2.8 4-0.9 2.3-0.9 5 0 2.6 0.9 4.9 1 2.3 2.8 4 1.8 1.7 4.2 2.6 2.4 1 5.3 1 2.7 0 5.1-0.8 2.5-0.9 4.5-2.8l2.8 3.6q-2.5 2-5.8 3-3.3 1.1-6.8 1.1zm8-4.7v-12.1h4.6v12.7z"/>
				<path id="&lt;Compound Path&gt;" class="s2" d="m162.5 132.2v-32.5h4.7l0.1 28.5 18-0.1v4.1z"/>
				<path id="&lt;Compound Path&gt;" class="s2" d="m207 99.7l0.1 32.5h-4.8v-32.5z"/>
				<path id="&lt;Compound Path&gt;" class="s2" d="m228.6 132.1v-32.4h14q5.3-0.1 9.4 2 4.1 2 6.3 5.7 2.3 3.6 2.3 8.5 0 4.8-2.3 8.5-2.2 3.6-6.3 5.7-4 2-9.4 2zm4.8-4h9q4.1 0 7.1-1.6 3-1.5 4.7-4.3 1.7-2.7 1.7-6.3 0-3.7-1.7-6.4-1.7-2.8-4.7-4.3-3-1.5-7.2-1.5h-8.9z"/>
				<path id="&lt;Compound Path&gt;" class="s2" d="m282.8 128.1l19.4-0.1v4.1h-24.1l-0.1-32.5h23.5v4l-18.7 0.1zm16.7-14.5v4h-17.2v-4z"/>
			</g>
			<g id="&lt;Group&gt;">
				<g id="&lt;Group&gt;">
					<path id="&lt;Path&gt;" class="s2" d="m34.8 87.3l-28.7 29v15.3l43.9-44.3-44-44.2v15.3z"/>
					<path id="&lt;Path&gt;" class="s2" d="m6 66.5v7.7l13 13-13 13v7.7l20.6-20.7z"/>
				</g>
				<g id="&lt;Group&gt;">
					<path id="&lt;Path&gt;" class="s3" d="m65.4 87.3l29.1-29v-15.3l-44.5 44.3 44.6 44.2v-15.3z"/>
					<path id="&lt;Path&gt;" class="s3" d="m94.5 107.9v-7.7l-13.1-13 13.1-13v-7.7l-20.8 20.7z"/>
				</g>
			</g>
			<g id="&lt;Group&gt;">
				<g id="&lt;Group&gt;">
				</g>
			</g>
			<g id="&lt;Group&gt;">
				<g id="&lt;Group&gt;">
				</g>
			</g>
			<g id="&lt;Group&gt;">
				<g id="&lt;Group&gt;">
				</g>
			</g>
			<g id="&lt;Group&gt;">
				<g id="&lt;Group&gt;">
				</g>
			</g>
		</g>
		<g id="&lt;Group&gt;">
			<g id="&lt;Group&gt;">
			</g>
		</g>
		<text id="" style="transform: matrix(1,0,0,1,321.389,-87.449)" >
		</text>
		<text id="" style="transform: matrix(1,0,0,1,-178.427,379.477)" >
		</text>
		<text id="tt" style="transform: matrix(1,0,0,1,-862.194,751.934)" >
			<tspan x="0" y="0" class="t4">t</tspan><tspan  y="0" class="t4">t</tspan><tspan  y="0" class="t4">
</tspan>
		</text>
	</g>
</svg>