<svg version="1.2" xmlns="http://www.w3.org/2000/svg" viewBox="0 0 180 180" width="180" height="180">
	<title>DG-logo-guideones (1)-ai</title>
	<style>
		tspan { white-space:pre } 
		.t0 { font-size: 20px;fill: #0483af;font-weight: 300;font-family: "Montserrat Roman" } 
		.s1 { fill: #0483af } 
		.s2 { fill: #ff7a48 } 
		.s3 { fill: #000000 } 
		.s4 { fill: #8e8e8e } 
		.t5 { font-size: 12px;fill: #000000;font-weight: 300;font-family: "Montserrat Roman" } 
		.t6 { font-size: 10px;fill: #ff00ff;font-family: "Montserrat Roman" } 
	</style>
	<g id="Layer 1">
		<text id="Digital Glide log block style guidelines
" style="transform: matrix(2,0,0,2,658.96,-145.26)" >
			<tspan x="0" y="0" class="t0">Digital Glide log block style guidelines
</tspan>
		</text>
		<text id="Digital Glide log block style black background
" style="transform: matrix(2,0,0,2,658.96,406.74)" >
			<tspan x="0" y="0" class="t0">Digital Glide log block style black background
</tspan>
		</text>
		<text id="Black and White usage
" style="transform: matrix(2,0,0,2,1056.96,-21.26)" >
			<tspan x="0" y="0" class="t0">Black and White usage
</tspan>
		</text>
		<g id="&lt;Group&gt;">
			<g id="&lt;Group&gt;">
				<g id="&lt;Group&gt;">
					<path id="&lt;Compound Path&gt;" fill-rule="evenodd" class="s1" d="m1290.2-408.2v-33.5h14.5q5.4 0 9.6 2.1 4.2 2.1 6.5 5.9 2.4 3.8 2.4 8.8 0 4.9-2.4 8.7-2.3 3.8-6.5 5.9-4.2 2.1-9.6 2.1zm4.8-4.2h9.3q4.3 0 7.4-1.6 3.1-1.5 4.8-4.4 1.7-2.8 1.7-6.5 0-3.8-1.7-6.6-1.7-2.9-4.8-4.4-3.1-1.6-7.4-1.6h-9.3z"/>
					<path id="&lt;Compound Path&gt;" class="s1" d="m1330.7-408.2v-33.5h4.9v33.5z"/>
					<path id="&lt;Compound Path&gt;" fill-rule="evenodd" class="s1" d="m1361.3-407.8q-4 0-7.3-1.3-3.3-1.3-5.8-3.6-2.4-2.3-3.8-5.4-1.4-3.1-1.4-6.8 0-3.8 1.4-6.9 1.4-3.1 3.9-5.4 2.4-2.3 5.8-3.6 3.3-1.3 7.3-1.3 4.1 0 7.5 1.3 3.3 1.3 5.7 3.9l-3.1 3q-2.1-2-4.5-3-2.5-0.9-5.4-0.9-2.9 0-5.5 1-2.5 0.9-4.3 2.6-1.9 1.8-2.9 4.1-1 2.4-1 5.2 0 2.7 1 5 1 2.4 2.9 4.1 1.8 1.8 4.3 2.7 2.5 1 5.5 1 2.7 0 5.2-0.8 1.5-0.5 2.8-1.4v1.6l4.7 0.6q-2.6 2.1-6 3.2-3.4 1.1-7 1.1zm10.2-7.9l2.8 3.6v-13h-4.7v10.8q1-0.6 1.9-1.4z"/>
					<path id="&lt;Compound Path&gt;" class="s1" d="m1383.6-408.2v-33.5h4.9v33.5z"/>
					<path id="&lt;Compound Path&gt;" class="s1" d="m1405.6-408.2v-29.3h-11.7v-4.2h28.3v4.2h-11.7v29.3z"/>
					<path id="&lt;Compound Path&gt;" fill-rule="evenodd" class="s1" d="m1420.7-408.2l15.5-33.5h4.8l15.6 33.5h-5.1l-3.8-8.4h1.6l-1.4-3.8h-1.9l-7.4-16.4-7.4 16.4h-2.6l-1.3 3.8h2.2l-3.8 8.4zm17.9-28.6l1-2.2h-1.9zm9.1 20.2l-1.8-3.8h-14.7l-1.8 3.8z"/>
					<path id="&lt;Compound Path&gt;" class="s1" d="m1461.7-408.2v-33.5h4.9v29.3h18.6v4.2z"/>
				</g>
				<g id="&lt;Group&gt;">
					<path id="&lt;Compound Path&gt;" fill-rule="evenodd" class="s1" d="m1308.5-350.5q-4 0-7.3-1.3-3.4-1.2-5.8-3.6-2.5-2.3-3.8-5.4-1.4-3.1-1.4-6.8 0-3.7 1.4-6.8 1.3-3.2 3.8-5.5 2.5-2.3 5.8-3.6 3.4-1.2 7.4-1.2 4 0 7.4 1.3 3.4 1.3 5.7 3.8l-3 3q-2.1-2-4.6-2.9-2.4-1-5.3-1-3 0-5.5 1-2.5 0.9-4.4 2.7-1.8 1.7-2.8 4.1-1 2.3-1 5.1 0 2.7 1 5.1 1 2.3 2.8 4.1 1.9 1.7 4.4 2.7 2.5 0.9 5.4 0.9 2.8 0 5.3-0.8 1.4-0.5 2.7-1.3v1.5l4.7 0.6q-2.5 2.1-5.9 3.2-3.4 1.1-7 1.1zm10.2-7.9l2.7 3.6v-13h-4.7v10.9q1-0.7 2-1.5z"/>
					<path id="&lt;Compound Path&gt;" class="s1" d="m1342.7-350.9v-33.4h4.9v29.3h18.6v4.1z"/>
					<path id="&lt;Compound Path&gt;" class="s1" d="m1383.7-350.9v-33.4h4.9v33.4z"/>
					<path id="&lt;Compound Path&gt;" fill-rule="evenodd" class="s1" d="m1410.8-350.9v-33.4h14.4q5.5 0 9.7 2.1 4.2 2.1 6.5 5.8 2.3 3.8 2.3 8.8 0 5-2.3 8.7-2.3 3.8-6.5 5.9-4.2 2.1-9.7 2.1zm4.9-4.1h9.3q4.2 0 7.3-1.6 3.2-1.6 4.9-4.4 1.7-2.9 1.7-6.6 0-3.8-1.7-6.6-1.7-2.8-4.9-4.4-3.1-1.6-7.3-1.6h-9.3z"/>
					<path id="&lt;Compound Path&gt;" fill-rule="evenodd" class="s1" d="m1468-355h20v4.1h-24.9v-33.4h24.2v4.1h-19.3v10.3h-0.4v4.1h0.4zm17.2-10.8v-4.1h-17.2v4.1z"/>
				</g>
			</g>
			<g id="&lt;Group&gt;">
				<g id="&lt;Group&gt;">
					<path id="&lt;Path&gt;" class="s1" d="m1190.7-442.1v15.7l29.5 29.8-29.5 29.7v15.7l45.1-45.4z"/>
					<path id="&lt;Path&gt;" class="s1" d="m1190.7-417.8v7.8l13.2 13.4-13.2 13.3v7.9l21-21.2z"/>
				</g>
				<g id="&lt;Group&gt;">
					<path id="&lt;Path&gt;" class="s2" d="m1251.6-396.6l29.9-29.8v-15.7l-45.7 45.5 45.7 45.4v-15.7z"/>
					<path id="&lt;Path&gt;" class="s2" d="m1281.5-375.4v-7.9l-13.5-13.3 13.5-13.4v-7.8l-21.4 21.2z"/>
				</g>
			</g>
		</g>
		<g id="&lt;Group&gt;">
			<g id="&lt;Group&gt;">
				<g id="&lt;Group&gt;">
					<path id="&lt;Compound Path&gt;" fill-rule="evenodd" class="s3" d="m1158.2 81.8v-33.5h14.5q5.4 0 9.6 2.1 4.2 2.1 6.5 5.9 2.4 3.8 2.4 8.8 0 4.9-2.4 8.7-2.3 3.8-6.5 5.9-4.2 2.1-9.6 2.1zm4.8-4.2h9.3q4.3 0 7.4-1.6 3.1-1.5 4.8-4.4 1.7-2.8 1.7-6.5 0-3.8-1.7-6.6-1.7-2.9-4.8-4.4-3.1-1.6-7.4-1.6h-9.3z"/>
					<path id="&lt;Compound Path&gt;" class="s3" d="m1198.7 81.8v-33.5h4.9v33.5z"/>
					<path id="&lt;Compound Path&gt;" fill-rule="evenodd" class="s3" d="m1229.3 82.2q-4 0-7.3-1.3-3.3-1.3-5.8-3.6-2.4-2.3-3.8-5.4-1.4-3.1-1.4-6.8 0-3.8 1.4-6.9 1.4-3.1 3.9-5.4 2.4-2.3 5.8-3.6 3.3-1.3 7.3-1.3 4.1 0 7.5 1.3 3.3 1.3 5.7 3.9l-3.1 3q-2.1-2-4.5-3-2.5-0.9-5.4-0.9-2.9 0-5.5 1-2.5 0.9-4.3 2.6-1.9 1.8-2.9 4.1-1 2.4-1 5.2 0 2.7 1 5 1 2.4 2.9 4.1 1.8 1.8 4.3 2.7 2.5 1 5.5 1 2.7 0 5.2-0.8 1.5-0.5 2.8-1.4v1.6l4.7 0.6q-2.6 2.1-6 3.2-3.4 1.1-7 1.1zm10.2-7.9l2.8 3.6v-13h-4.7v10.8q1-0.6 1.9-1.4z"/>
					<path id="&lt;Compound Path&gt;" class="s3" d="m1251.6 81.8v-33.5h4.9v33.5z"/>
					<path id="&lt;Compound Path&gt;" class="s3" d="m1273.6 81.8v-29.3h-11.7v-4.2h28.3v4.2h-11.7v29.3z"/>
					<path id="&lt;Compound Path&gt;" fill-rule="evenodd" class="s3" d="m1288.7 81.8l15.5-33.5h4.8l15.6 33.5h-5.1l-3.8-8.4h1.6l-1.4-3.8h-1.9l-7.4-16.4-7.4 16.4h-2.6l-1.3 3.8h2.2l-3.8 8.4zm17.9-28.6l1-2.2h-1.9zm9.1 20.2l-1.8-3.8h-14.7l-1.8 3.8z"/>
					<path id="&lt;Compound Path&gt;" class="s3" d="m1329.7 81.8v-33.5h4.9v29.3h18.6v4.2z"/>
				</g>
				<g id="&lt;Group&gt;">
					<path id="&lt;Compound Path&gt;" fill-rule="evenodd" class="s3" d="m1176.5 139.5q-4 0-7.3-1.3-3.4-1.2-5.8-3.6-2.5-2.3-3.8-5.4-1.4-3.1-1.4-6.8 0-3.7 1.4-6.8 1.3-3.2 3.8-5.5 2.5-2.3 5.8-3.6 3.4-1.2 7.4-1.2 4 0 7.4 1.3 3.4 1.3 5.7 3.8l-3 3q-2.1-2-4.6-2.9-2.4-1-5.3-1-3 0-5.5 1-2.5 0.9-4.4 2.7-1.8 1.7-2.8 4.1-1 2.3-1 5.1 0 2.7 1 5.1 1 2.3 2.8 4.1 1.9 1.7 4.4 2.7 2.5 0.9 5.4 0.9 2.8 0 5.3-0.8 1.4-0.5 2.7-1.3v1.5l4.7 0.6q-2.5 2.1-5.9 3.2-3.4 1.1-7 1.1zm10.2-7.9l2.7 3.6v-13h-4.7v10.9q1-0.7 2-1.5z"/>
					<path id="&lt;Compound Path&gt;" class="s3" d="m1210.7 139.1v-33.4h4.9v29.3h18.6v4.1z"/>
					<path id="&lt;Compound Path&gt;" class="s3" d="m1251.7 139.1v-33.4h4.9v33.4z"/>
					<path id="&lt;Compound Path&gt;" fill-rule="evenodd" class="s3" d="m1278.8 139.1v-33.4h14.4q5.5 0 9.7 2.1 4.2 2.1 6.5 5.8 2.3 3.8 2.3 8.8 0 5-2.3 8.7-2.3 3.8-6.5 5.9-4.2 2.1-9.7 2.1zm4.9-4.1h9.3q4.2 0 7.3-1.6 3.2-1.6 4.9-4.4 1.7-2.9 1.7-6.6 0-3.8-1.7-6.6-1.7-2.8-4.9-4.4-3.1-1.6-7.3-1.6h-9.3z"/>
					<path id="&lt;Compound Path&gt;" fill-rule="evenodd" class="s3" d="m1336 135h20v4.1h-24.9v-33.4h24.2v4.1h-19.3v10.3h-0.4v4.1h0.4zm17.2-10.8v-4.1h-17.2v4.1z"/>
				</g>
			</g>
			<g id="&lt;Group&gt;">
				<path id="&lt;Path&gt;" class="s4" d="m1058.7 47.9v15.7l29.5 29.8-29.5 29.7v15.7l45.1-45.4z"/>
				<path id="&lt;Path&gt;" class="s4" d="m1058.7 72.2v7.8l13.2 13.4-13.2 13.3v7.9l21-21.2z"/>
			</g>
			<g id="&lt;Group&gt;">
				<path id="&lt;Path&gt;" class="s3" d="m1119.6 93.4l29.9-29.8v-15.7l-45.7 45.5 45.7 45.4v-15.7z"/>
				<path id="&lt;Path&gt;" class="s3" d="m1149.5 114.6v-7.9l-13.5-13.3 13.5-13.4v-7.8l-21.4 21.2z"/>
			</g>
		</g>
		<g id="&lt;Group&gt;">
		</g>
		<g id="&lt;Group&gt;">
		</g>
		<g id="&lt;Group&gt;">
			<g id="&lt;Group&gt;">
				<path id="&lt;Path&gt;" class="s4" d="m1080 193h-26v-26h26z"/>
				<text id="#8E8E8E
" style="transform: matrix(2,0,0,2,1088.462,187.092)" >
					<tspan x="0" y="0" class="t5">#8E8E8E
</tspan>
				</text>
			</g>
			<g id="&lt;Group&gt;">
				<path id="&lt;Path&gt;" class="s3" d="m1252 191h-26v-26h26z"/>
				<text id="#000000
" style="transform: matrix(2,0,0,2,1260.462,185.092)" >
					<tspan x="0" y="0" class="t5">#000000
</tspan>
				</text>
			</g>
		</g>
		<text id="Type = Montserrat-Medium
" style="transform: matrix(2,0,0,2,1056.712,229.24)" >
			<tspan x="0" y="0" class="t6">Type = Montserrat-Medium
</tspan>
		</text>
		<text id="Type = Montserrat-Medium
" style="transform: matrix(2,0,0,2,670.712,627.24)" >
			<tspan x="0" y="0" class="t6">Type = Montserrat-Medium
</tspan>
		</text>
		<text id="Type = Montserrat - BOLD
" style="transform: matrix(2,0,0,2,652.712,281.24)" >
			<tspan x="0" y="0" class="t6">Type = Montserrat - BOLD
</tspan>
		</text>
		<text id="Proportion - 1:1
" style="transform: matrix(2,0,0,2,652.712,247.24)" >
			<tspan x="0" y="0" class="t6">Proportion - 1:1
</tspan>
		</text>
		<text id="100 x 100 px
" style="transform: matrix(2,0,0,2,842.712,-26.76)" >
			<tspan x="0" y="0" class="t6">100 x 100 px
</tspan>
		</text>
		<g id="&lt;Group&gt;">
			<g id="&lt;Group&gt;">
				<path id="&lt;Path&gt;" class="s1" d="m61.4 89.6l-52.4 52.7v27.9l80.1-80.6-80.1-80.7v27.9z"/>
				<path id="&lt;Path&gt;" class="s1" d="m9 51.9v13.9l23.6 23.8-23.6 23.7v13.9l37.4-37.6z"/>
				<path id="&lt;Path&gt;" class="s2" d="m117.8 89.6l53.2-52.8v-27.9l-81.2 80.7 81.2 80.6v-27.9z"/>
				<path id="&lt;Path&gt;" class="s2" d="m171 127.2v-13.9l-23.9-23.7 23.9-23.8v-13.9l-37.9 37.7z"/>
			</g>
		</g>
	</g>
</svg>